<svg xmlns="http://www.w3.org/2000/svg" viewBox="0 0 1240 300" width="1240" height="300" role="img" aria-label="Niccolò — Full-stack engineer: graphics, WebAssembly, real-time systems">
  <defs>
    <linearGradient id="bg" x1="0" y1="0" x2="1" y2="1">
      <stop offset="0" stop-color="#0B1622"/>
      <stop offset="1" stop-color="#0F2030"/>
    </linearGradient>
    <linearGradient id="sweep" x1="0" y1="0" x2="1" y2="0">
      <stop offset="0" stop-color="#38BDF8" stop-opacity="0"/>
      <stop offset="1" stop-color="#38BDF8" stop-opacity="1"/>
    </linearGradient>
    <clipPath id="round"><rect x="0" y="0" width="1240" height="300" rx="26"/></clipPath>
  </defs>

  <g clip-path="url(#round)">
    <rect x="0" y="0" width="1240" height="300" fill="url(#bg)"/>
    <circle cx="1180" cy="150" r="120" fill="none" stroke="#38BDF8" stroke-width="1.5" opacity="0.1"/><circle cx="1180" cy="150" r="190" fill="none" stroke="#38BDF8" stroke-width="1.5" opacity="0.07"/><circle cx="1180" cy="150" r="260" fill="none" stroke="#38BDF8" stroke-width="1.5" opacity="0.05"/><circle cx="1180" cy="150" r="330" fill="none" stroke="#38BDF8" stroke-width="1.5" opacity="0.035"/>
    <path d="M1180,150 L850,150 A330,330 0 0,1 880,12 Z" fill="url(#sweep)" opacity="0.10"/>
    <circle cx="1030" cy="55" r="5" fill="#F59E0B"/>
    <!-- left accent bar -->
    <rect x="0" y="0" width="6" height="300" fill="#38BDF8"/>
    <!-- eyebrow dot + line -->
    <rect x="76" y="190" width="56" height="4" rx="2" fill="#38BDF8"/>
    <!-- wordmark -->
    <path d="M79.91,168.00 L79.91,84.00 L110.04,84.00 L126.71,157.20 L128.89,157.20 L128.89,84.00 L144.49,84.00 L144.49,168.00 L114.36,168.00 L97.69,94.80 L95.51,94.80 L95.51,168.00 L79.91,168.00 Z M160.80,168.00 L160.80,108.49 L175.91,108.49 L175.91,168.00 L160.80,168.00 Z M168.41,101.51 Q164.34,101.51 161.51,98.89 Q158.70,96.24 158.70,91.91 Q158.70,87.60 161.51,84.96 Q164.34,82.31 168.41,82.31 Q172.61,82.31 175.37,84.96 Q178.14,87.60 178.14,91.91 Q178.14,96.24 175.37,98.89 Q172.61,101.51 168.41,101.51 Z M220.68,169.69 Q212.03,169.69 205.02,166.09 Q198.01,162.49 193.92,155.64 Q189.83,148.80 189.83,139.09 L189.83,137.40 Q189.83,127.69 193.92,120.84 Q198.01,114.00 205.02,110.40 Q212.03,106.80 220.68,106.80 Q229.21,106.80 235.32,109.80 Q241.43,112.80 245.22,118.03 Q249.01,123.24 250.21,129.84 L235.56,132.96 Q235.08,129.36 233.39,126.49 Q231.72,123.60 228.66,121.93 Q225.61,120.24 221.03,120.24 Q216.48,120.24 212.82,122.23 Q209.16,124.20 207.06,128.10 Q204.96,132.00 204.96,137.64 L204.96,138.84 Q204.96,144.49 207.06,148.39 Q209.16,152.29 212.82,154.28 Q216.48,156.24 221.03,156.24 Q227.88,156.24 231.42,152.70 Q234.96,149.16 235.92,143.40 L250.56,146.89 Q249.01,153.24 245.22,158.47 Q241.43,163.69 235.32,166.69 Q229.21,169.69 220.68,169.69 Z M291.00,169.69 Q282.35,169.69 275.34,166.09 Q268.33,162.49 264.24,155.64 Q260.15,148.80 260.15,139.09 L260.15,137.40 Q260.15,127.69 264.24,120.84 Q268.33,114.00 275.34,110.40 Q282.35,106.80 291.00,106.80 Q299.53,106.80 305.64,109.80 Q311.75,112.80 315.54,118.03 Q319.33,123.24 320.53,129.84 L305.88,132.96 Q305.40,129.36 303.71,126.49 Q302.04,123.60 298.98,121.93 Q295.93,120.24 291.35,120.24 Q286.80,120.24 283.14,122.23 Q279.48,124.20 277.38,128.10 Q275.28,132.00 275.28,137.64 L275.28,138.84 Q275.28,144.49 277.38,148.39 Q279.48,152.29 283.14,154.28 Q286.80,156.24 291.35,156.24 Q298.20,156.24 301.74,152.70 Q305.28,149.16 306.24,143.40 L320.88,146.89 Q319.33,153.24 315.54,158.47 Q311.75,163.69 305.64,166.69 Q299.53,169.69 291.00,169.69 Z M361.67,169.69 Q352.80,169.69 345.72,166.09 Q338.65,162.49 334.56,155.64 Q330.47,148.80 330.47,139.20 L330.47,137.29 Q330.47,127.69 334.56,120.84 Q338.65,114.00 345.72,110.40 Q352.80,106.80 361.67,106.80 Q370.56,106.80 377.63,110.40 Q384.72,114.00 388.78,120.84 Q392.87,127.69 392.87,137.29 L392.87,139.20 Q392.87,148.80 388.78,155.64 Q384.72,162.49 377.63,166.09 Q370.56,169.69 361.67,169.69 Z M361.67,156.24 Q368.65,156.24 373.20,151.74 Q377.76,147.24 377.76,138.84 L377.76,137.64 Q377.76,129.24 373.26,124.74 Q368.76,120.24 361.67,120.24 Q354.72,120.24 350.16,124.74 Q345.60,129.24 345.60,137.64 L345.60,138.84 Q345.60,147.24 350.16,151.74 Q354.72,156.24 361.67,156.24 Z M406.80,168.00 L406.80,84.00 L421.91,84.00 L421.91,168.00 L406.80,168.00 Z M467.03,169.69 Q458.16,169.69 451.08,166.09 Q444.01,162.49 439.92,155.64 Q435.83,148.80 435.83,139.20 L435.83,137.29 Q435.83,127.69 439.92,120.84 Q444.01,114.00 451.08,110.40 Q458.16,106.80 467.03,106.80 Q475.92,106.80 482.99,110.40 Q490.08,114.00 494.14,120.84 Q498.23,127.69 498.23,137.29 L498.23,139.20 Q498.23,148.80 494.14,155.64 Q490.08,162.49 482.99,166.09 Q475.92,169.69 467.03,169.69 Z M467.03,156.24 Q474.01,156.24 478.56,151.74 Q483.12,147.24 483.12,138.84 L483.12,137.64 Q483.12,129.24 478.62,124.74 Q474.12,120.24 467.03,120.24 Q460.08,120.24 455.52,124.74 Q450.96,129.24 450.96,137.64 L450.96,138.84 Q450.96,147.24 455.52,151.74 Q460.08,156.24 467.03,156.24 Z M462.98,101.76 L450.27,84.00 L467.31,84.00 L476.18,101.76 L462.98,101.76 Z" fill="#F3F7FB"/>
    <!-- tagline -->
    <path d="M78.11,232.00 L78.11,214.46 L88.70,214.46 L88.70,216.86 L80.63,216.86 L80.63,222.09 L88.07,222.09 L88.07,224.49 L80.68,224.49 L80.68,232.00 L78.11,232.00 Z M97.58,232.24 Q95.20,232.24 93.78,230.86 Q92.37,229.48 92.37,227.10 L92.37,218.80 L94.96,218.80 L94.96,227.10 Q94.96,228.47 95.65,229.23 Q96.35,229.98 97.58,229.98 Q98.82,229.98 99.53,229.23 Q100.24,228.47 100.24,227.10 L100.24,218.80 L102.83,218.80 L102.83,227.10 Q102.83,229.48 101.40,230.86 Q99.98,232.24 97.58,232.24 Z M113.90,232.00 Q112.67,232.00 111.76,231.51 Q110.85,231.02 110.33,230.11 Q109.82,229.19 109.82,227.99 L109.82,216.83 L105.50,216.83 L105.50,214.48 L112.41,214.48 L112.41,227.99 Q112.41,228.76 112.84,229.21 Q113.27,229.65 114.02,229.65 L118.10,229.65 L118.10,232.00 L113.90,232.00 Z M128.30,232.00 Q127.07,232.00 126.16,231.51 Q125.25,231.02 124.73,230.11 Q124.22,229.19 124.22,227.99 L124.22,216.83 L119.90,216.83 L119.90,214.48 L126.81,214.48 L126.81,227.99 Q126.81,228.76 127.24,229.21 Q127.67,229.65 128.42,229.65 L132.50,229.65 L132.50,232.00 L128.30,232.00 Z M136.96,225.26 L136.96,222.90 L144.64,222.90 L144.64,225.26 L136.96,225.26 Z M154.74,232.22 Q153.33,232.22 152.26,231.76 Q151.19,231.30 150.58,230.50 Q149.97,229.70 149.87,228.59 L152.46,228.59 Q152.56,229.24 153.16,229.64 Q153.76,230.03 154.74,230.03 L155.78,230.03 Q156.95,230.03 157.55,229.55 Q158.15,229.07 158.15,228.28 Q158.15,227.51 157.61,227.07 Q157.07,226.62 156.02,226.48 L154.31,226.22 Q152.20,225.88 151.20,225.01 Q150.21,224.13 150.21,222.40 Q150.21,220.58 151.39,219.58 Q152.58,218.58 154.91,218.58 L155.82,218.58 Q157.89,218.58 159.12,219.53 Q160.36,220.48 160.53,222.06 L157.94,222.06 Q157.84,221.49 157.30,221.13 Q156.76,220.77 155.82,220.77 L154.91,220.77 Q153.78,220.77 153.26,221.19 Q152.75,221.61 152.75,222.42 Q152.75,223.14 153.20,223.50 Q153.66,223.86 154.62,224.01 L156.38,224.30 Q158.61,224.61 159.65,225.53 Q160.70,226.46 160.70,228.21 Q160.70,230.10 159.46,231.16 Q158.22,232.22 155.78,232.22 L154.74,232.22 Z M171.04,232.00 Q169.24,232.00 168.23,231.02 Q167.22,230.03 167.22,228.28 L167.22,221.15 L163.58,221.15 L163.58,218.80 L167.22,218.80 L167.22,215.08 L169.82,215.08 L169.82,218.80 L174.98,218.80 L174.98,221.15 L169.82,221.15 L169.82,228.28 Q169.82,229.65 171.14,229.65 L174.74,229.65 L174.74,232.00 L171.04,232.00 Z M182.68,232.24 Q180.62,232.24 179.43,231.17 Q178.24,230.10 178.24,228.26 Q178.24,226.38 179.50,225.32 Q180.76,224.25 182.97,224.25 L186.64,224.25 L186.64,223.02 Q186.64,221.94 185.97,221.34 Q185.30,220.74 184.07,220.74 Q182.99,220.74 182.27,221.21 Q181.55,221.68 181.43,222.45 L178.89,222.45 Q179.10,220.67 180.53,219.62 Q181.96,218.56 184.14,218.56 Q186.50,218.56 187.86,219.75 Q189.23,220.94 189.23,222.98 L189.23,232.00 L186.71,232.00 L186.71,229.58 L186.69,229.58 Q186.52,230.68 185.61,231.38 Q184.50,232.24 182.68,232.24 Z M183.45,230.25 Q184.84,230.25 185.74,229.54 Q186.64,228.83 186.64,227.73 L186.64,226.00 L183.02,226.00 Q182.01,226.00 181.42,226.55 Q180.83,227.10 180.83,228.06 Q180.83,229.07 181.52,229.66 Q182.22,230.25 183.45,230.25 Z M198.50,232.24 Q196.86,232.24 195.62,231.63 Q194.39,231.02 193.73,229.85 Q193.07,228.69 193.07,227.13 L193.07,223.67 Q193.07,222.09 193.73,220.94 Q194.39,219.78 195.62,219.17 Q196.86,218.56 198.50,218.56 Q200.87,218.56 202.31,219.81 Q203.75,221.06 203.82,223.22 L201.23,223.22 Q201.16,222.09 200.44,221.47 Q199.72,220.84 198.50,220.84 Q197.18,220.84 196.41,221.57 Q195.64,222.30 195.64,223.65 L195.64,227.13 Q195.64,228.47 196.41,229.22 Q197.18,229.96 198.50,229.96 Q199.72,229.96 200.44,229.34 Q201.16,228.71 201.23,227.58 L203.82,227.58 Q203.75,229.74 202.31,230.99 Q200.87,232.24 198.50,232.24 Z M207.69,232.00 L207.69,214.48 L210.28,214.48 L210.28,224.10 L212.61,224.10 L216.11,218.80 L219.04,218.80 L214.84,225.14 L219.11,232.00 L216.14,232.00 L212.61,226.34 L210.28,226.34 L210.28,232.00 L207.69,232.00 Z M241.60,232.24 Q239.99,232.24 238.78,231.61 Q237.57,230.97 236.92,229.82 Q236.27,228.66 236.27,227.13 L236.27,223.67 Q236.27,222.11 236.92,220.97 Q237.57,219.83 238.78,219.20 Q239.99,218.56 241.60,218.56 Q243.23,218.56 244.43,219.20 Q245.63,219.83 246.28,220.97 Q246.93,222.11 246.93,223.67 L246.93,226.02 L238.77,226.02 L238.77,227.13 Q238.77,228.59 239.50,229.36 Q240.23,230.13 241.62,230.13 Q242.75,230.13 243.44,229.74 Q244.14,229.34 244.31,228.57 L246.88,228.57 Q246.59,230.25 245.15,231.25 Q243.71,232.24 241.60,232.24 Z M244.43,224.25 L244.43,223.65 Q244.43,222.21 243.71,221.42 Q242.99,220.62 241.60,220.62 Q240.23,220.62 239.50,221.42 Q238.77,222.21 238.77,223.67 L238.77,224.27 L244.43,224.25 Z M250.82,232.00 L250.82,218.80 L253.38,218.80 L253.38,221.32 L253.43,221.32 Q253.58,220.17 254.32,219.45 Q255.26,218.56 256.91,218.56 Q258.88,218.56 260.05,219.82 Q261.23,221.08 261.23,223.22 L261.23,232.00 L258.64,232.00 L258.64,223.50 Q258.64,222.21 257.94,221.51 Q257.25,220.82 256.05,220.82 Q254.82,220.82 254.11,221.55 Q253.41,222.28 253.41,223.67 L253.41,232.00 L250.82,232.00 Z M266.94,236.32 L266.94,234.09 L271.00,234.09 Q272.01,234.09 272.50,233.61 Q272.99,233.13 272.99,232.19 L272.99,230.87 L273.04,228.42 L272.99,228.42 Q272.87,229.60 272.08,230.32 Q271.12,231.18 269.51,231.18 Q267.47,231.18 266.29,229.84 Q265.12,228.50 265.12,226.22 L265.12,223.53 Q265.12,221.25 266.29,219.91 Q267.47,218.56 269.51,218.56 Q271.12,218.56 272.08,219.42 Q272.85,220.17 272.99,221.32 L273.02,221.32 L272.99,218.80 L275.56,218.80 L275.56,232.24 Q275.56,234.14 274.36,235.23 Q273.16,236.32 271.02,236.32 L266.94,236.32 Z M270.35,228.95 Q271.58,228.95 272.28,228.20 Q272.99,227.44 272.99,226.10 L272.99,223.67 Q272.99,222.33 272.28,221.57 Q271.58,220.82 270.35,220.82 Q269.08,220.82 268.39,221.55 Q267.71,222.28 267.71,223.67 L267.71,226.10 Q267.71,227.46 268.39,228.21 Q269.08,228.95 270.35,228.95 Z M279.54,232.00 L279.54,229.65 L284.18,229.65 L284.18,221.15 L280.14,221.15 L280.14,218.80 L286.70,218.80 L286.70,229.65 L290.94,229.65 L290.94,232.00 L279.54,232.00 Z M285.19,216.52 Q284.35,216.52 283.84,216.08 Q283.34,215.63 283.34,214.89 Q283.34,214.12 283.84,213.68 Q284.35,213.23 285.19,213.23 Q286.03,213.23 286.53,213.68 Q287.04,214.12 287.04,214.89 Q287.04,215.63 286.53,216.08 Q286.03,216.52 285.19,216.52 Z M294.02,232.00 L294.02,218.80 L296.58,218.80 L296.58,221.32 L296.63,221.32 Q296.78,220.17 297.52,219.45 Q298.46,218.56 300.11,218.56 Q302.08,218.56 303.25,219.82 Q304.43,221.08 304.43,223.22 L304.43,232.00 L301.84,232.00 L301.84,223.50 Q301.84,222.21 301.14,221.51 Q300.45,220.82 299.25,220.82 Q298.02,220.82 297.31,221.55 Q296.61,222.28 296.61,223.67 L296.61,232.00 L294.02,232.00 Z M313.60,232.24 Q311.99,232.24 310.78,231.61 Q309.57,230.97 308.92,229.82 Q308.27,228.66 308.27,227.13 L308.27,223.67 Q308.27,222.11 308.92,220.97 Q309.57,219.83 310.78,219.20 Q311.99,218.56 313.60,218.56 Q315.23,218.56 316.43,219.20 Q317.63,219.83 318.28,220.97 Q318.93,222.11 318.93,223.67 L318.93,226.02 L310.77,226.02 L310.77,227.13 Q310.77,228.59 311.50,229.36 Q312.23,230.13 313.62,230.13 Q314.75,230.13 315.44,229.74 Q316.14,229.34 316.31,228.57 L318.88,228.57 Q318.59,230.25 317.15,231.25 Q315.71,232.24 313.60,232.24 Z M316.43,224.25 L316.43,223.65 Q316.43,222.21 315.71,221.42 Q314.99,220.62 313.60,220.62 Q312.23,220.62 311.50,221.42 Q310.77,222.21 310.77,223.67 L310.77,224.27 L316.43,224.25 Z M328.00,232.24 Q326.39,232.24 325.18,231.61 Q323.97,230.97 323.32,229.82 Q322.67,228.66 322.67,227.13 L322.67,223.67 Q322.67,222.11 323.32,220.97 Q323.97,219.83 325.18,219.20 Q326.39,218.56 328.00,218.56 Q329.63,218.56 330.83,219.20 Q332.03,219.83 332.68,220.97 Q333.33,222.11 333.33,223.67 L333.33,226.02 L325.17,226.02 L325.17,227.13 Q325.17,228.59 325.90,229.36 Q326.63,230.13 328.02,230.13 Q329.15,230.13 329.84,229.74 Q330.54,229.34 330.71,228.57 L333.28,228.57 Q332.99,230.25 331.55,231.25 Q330.11,232.24 328.00,232.24 Z M330.83,224.25 L330.83,223.65 Q330.83,222.21 330.11,221.42 Q329.39,220.62 328.00,220.62 Q326.63,220.62 325.90,221.42 Q325.17,222.21 325.17,223.67 L325.17,224.27 L330.83,224.25 Z M337.65,232.00 L337.65,218.80 L340.14,218.80 L340.14,221.25 Q340.38,220.29 340.91,219.64 Q341.85,218.56 343.70,218.56 Q345.81,218.56 347.04,219.87 Q348.28,221.18 348.28,223.46 L348.28,224.34 L345.62,224.34 L345.62,223.67 Q345.62,222.26 344.91,221.50 Q344.20,220.74 342.93,220.74 Q341.66,220.74 340.95,221.51 Q340.24,222.28 340.24,223.67 L340.24,232.00 L337.65,232.00 Z M380.03,234.64 L388.48,212.08 L391.17,212.08 L382.72,234.64 L380.03,234.64 Z M425.34,236.32 L425.34,234.09 L429.40,234.09 Q430.41,234.09 430.90,233.61 Q431.39,233.13 431.39,232.19 L431.39,230.87 L431.44,228.42 L431.39,228.42 Q431.27,229.60 430.48,230.32 Q429.52,231.18 427.91,231.18 Q425.87,231.18 424.69,229.84 Q423.52,228.50 423.52,226.22 L423.52,223.53 Q423.52,221.25 424.69,219.91 Q425.87,218.56 427.91,218.56 Q429.52,218.56 430.48,219.42 Q431.25,220.17 431.39,221.32 L431.42,221.32 L431.39,218.80 L433.96,218.80 L433.96,232.24 Q433.96,234.14 432.76,235.23 Q431.56,236.32 429.42,236.32 L425.34,236.32 Z M428.75,228.95 Q429.98,228.95 430.68,228.20 Q431.39,227.44 431.39,226.10 L431.39,223.67 Q431.39,222.33 430.68,221.57 Q429.98,220.82 428.75,220.82 Q427.48,220.82 426.79,221.55 Q426.11,222.28 426.11,223.67 L426.11,226.10 Q426.11,227.46 426.79,228.21 Q427.48,228.95 428.75,228.95 Z M438.45,232.00 L438.45,218.80 L440.94,218.80 L440.94,221.25 Q441.18,220.29 441.71,219.64 Q442.65,218.56 444.50,218.56 Q446.61,218.56 447.84,219.87 Q449.08,221.18 449.08,223.46 L449.08,224.34 L446.42,224.34 L446.42,223.67 Q446.42,222.26 445.71,221.50 Q445.00,220.74 443.73,220.74 Q442.46,220.74 441.75,221.51 Q441.04,222.28 441.04,223.67 L441.04,232.00 L438.45,232.00 Z M456.28,232.24 Q454.22,232.24 453.03,231.17 Q451.84,230.10 451.84,228.26 Q451.84,226.38 453.10,225.32 Q454.36,224.25 456.57,224.25 L460.24,224.25 L460.24,223.02 Q460.24,221.94 459.57,221.34 Q458.90,220.74 457.67,220.74 Q456.59,220.74 455.87,221.21 Q455.15,221.68 455.03,222.45 L452.49,222.45 Q452.70,220.67 454.13,219.62 Q455.56,218.56 457.74,218.56 Q460.10,218.56 461.46,219.75 Q462.83,220.94 462.83,222.98 L462.83,232.00 L460.31,232.00 L460.31,229.58 L460.29,229.58 Q460.12,230.68 459.21,231.38 Q458.10,232.24 456.28,232.24 Z M457.05,230.25 Q458.44,230.25 459.34,229.54 Q460.24,228.83 460.24,227.73 L460.24,226.00 L456.62,226.00 Q455.61,226.00 455.02,226.55 Q454.43,227.10 454.43,228.06 Q454.43,229.07 455.12,229.66 Q455.82,230.25 457.05,230.25 Z M466.82,236.32 L466.82,218.80 L469.38,218.80 L469.38,221.32 L469.43,221.32 Q469.58,220.17 470.37,219.45 Q471.33,218.56 472.96,218.56 Q474.95,218.56 476.14,219.89 Q477.33,221.22 477.33,223.53 L477.33,227.25 Q477.33,228.78 476.79,229.90 Q476.25,231.02 475.27,231.63 Q474.30,232.24 472.96,232.24 Q471.35,232.24 470.37,231.33 Q469.58,230.63 469.43,229.48 L469.34,229.48 L469.41,232.55 L469.41,236.32 L466.82,236.32 Z M472.07,229.98 Q473.34,229.98 474.05,229.25 Q474.76,228.52 474.76,227.13 L474.76,223.67 Q474.76,222.28 474.05,221.55 Q473.34,220.82 472.07,220.82 Q470.85,220.82 470.13,221.57 Q469.41,222.33 469.41,223.67 L469.41,227.13 Q469.41,228.47 470.13,229.23 Q470.85,229.98 472.07,229.98 Z M481.22,232.00 L481.22,214.48 L483.81,214.48 L483.81,218.80 L483.78,221.32 L483.83,221.32 Q483.98,220.17 484.72,219.45 Q485.66,218.56 487.31,218.56 Q489.28,218.56 490.45,219.82 Q491.63,221.08 491.63,223.22 L491.63,232.00 L489.04,232.00 L489.04,223.50 Q489.04,222.21 488.34,221.49 Q487.65,220.77 486.45,220.77 Q485.22,220.77 484.51,221.53 Q483.81,222.28 483.81,223.67 L483.81,232.00 L481.22,232.00 Z M495.54,232.00 L495.54,229.65 L500.18,229.65 L500.18,221.15 L496.14,221.15 L496.14,218.80 L502.70,218.80 L502.70,229.65 L506.94,229.65 L506.94,232.00 L495.54,232.00 Z M501.19,216.52 Q500.35,216.52 499.84,216.08 Q499.34,215.63 499.34,214.89 Q499.34,214.12 499.84,213.68 Q500.35,213.23 501.19,213.23 Q502.03,213.23 502.53,213.68 Q503.04,214.12 503.04,214.89 Q503.04,215.63 502.53,216.08 Q502.03,216.52 501.19,216.52 Z M515.30,232.24 Q513.66,232.24 512.42,231.63 Q511.19,231.02 510.53,229.85 Q509.87,228.69 509.87,227.13 L509.87,223.67 Q509.87,222.09 510.53,220.94 Q511.19,219.78 512.42,219.17 Q513.66,218.56 515.30,218.56 Q517.67,218.56 519.11,219.81 Q520.55,221.06 520.62,223.22 L518.03,223.22 Q517.96,222.09 517.24,221.47 Q516.52,220.84 515.30,220.84 Q513.98,220.84 513.21,221.57 Q512.44,222.30 512.44,223.65 L512.44,227.13 Q512.44,228.47 513.21,229.22 Q513.98,229.96 515.30,229.96 Q516.52,229.96 517.24,229.34 Q517.96,228.71 518.03,227.58 L520.62,227.58 Q520.55,229.74 519.11,230.99 Q517.67,232.24 515.30,232.24 Z M529.14,232.22 Q527.73,232.22 526.66,231.76 Q525.59,231.30 524.98,230.50 Q524.37,229.70 524.27,228.59 L526.86,228.59 Q526.96,229.24 527.56,229.64 Q528.16,230.03 529.14,230.03 L530.18,230.03 Q531.35,230.03 531.95,229.55 Q532.55,229.07 532.55,228.28 Q532.55,227.51 532.01,227.07 Q531.47,226.62 530.42,226.48 L528.71,226.22 Q526.60,225.88 525.60,225.01 Q524.61,224.13 524.61,222.40 Q524.61,220.58 525.79,219.58 Q526.98,218.58 529.31,218.58 L530.22,218.58 Q532.29,218.58 533.52,219.53 Q534.76,220.48 534.93,222.06 L532.34,222.06 Q532.24,221.49 531.70,221.13 Q531.16,220.77 530.22,220.77 L529.31,220.77 Q528.18,220.77 527.66,221.19 Q527.15,221.61 527.15,222.42 Q527.15,223.14 527.60,223.50 Q528.06,223.86 529.02,224.01 L530.78,224.30 Q533.01,224.61 534.05,225.53 Q535.10,226.46 535.10,228.21 Q535.10,230.10 533.86,231.16 Q532.62,232.22 530.18,232.22 L529.14,232.22 Z M558.40,225.76 Q557.44,225.76 556.86,225.20 Q556.29,224.63 556.29,223.67 Q556.29,222.69 556.86,222.10 Q557.44,221.51 558.40,221.51 Q559.38,221.51 559.94,222.10 Q560.51,222.69 560.51,223.67 Q560.51,224.63 559.94,225.20 Q559.38,225.76 558.40,225.76 Z M582.40,232.00 L580.50,214.48 L582.83,214.48 L584.01,227.06 Q584.06,227.54 584.09,228.12 Q584.13,228.69 584.16,229.24 Q584.20,229.79 584.20,230.20 Q584.25,229.79 584.29,229.24 Q584.34,228.69 584.40,228.12 Q584.46,227.54 584.54,227.06 L586.05,214.48 L588.45,214.48 L589.86,227.06 Q589.91,227.54 589.97,228.12 Q590.03,228.69 590.10,229.24 Q590.18,229.79 590.20,230.20 Q590.22,229.79 590.26,229.24 Q590.30,228.69 590.34,228.12 Q590.39,227.54 590.44,227.06 L591.64,214.48 L593.90,214.48 L591.93,232.00 L588.93,232.00 L587.51,219.26 Q587.46,218.75 587.41,218.19 Q587.37,217.62 587.32,217.08 Q587.27,216.54 587.22,216.18 Q587.20,216.54 587.15,217.08 Q587.10,217.62 587.05,218.19 Q587.01,218.75 586.94,219.26 L585.42,232.00 L582.40,232.00 Z M601.60,232.24 Q599.99,232.24 598.78,231.61 Q597.57,230.97 596.92,229.82 Q596.27,228.66 596.27,227.13 L596.27,223.67 Q596.27,222.11 596.92,220.97 Q597.57,219.83 598.78,219.20 Q599.99,218.56 601.60,218.56 Q603.23,218.56 604.43,219.20 Q605.63,219.83 606.28,220.97 Q606.93,222.11 606.93,223.67 L606.93,226.02 L598.77,226.02 L598.77,227.13 Q598.77,228.59 599.50,229.36 Q600.23,230.13 601.62,230.13 Q602.75,230.13 603.44,229.74 Q604.14,229.34 604.31,228.57 L606.88,228.57 Q606.59,230.25 605.15,231.25 Q603.71,232.24 601.60,232.24 Z M604.43,224.25 L604.43,223.65 Q604.43,222.21 603.71,221.42 Q602.99,220.62 601.60,220.62 Q600.23,220.62 599.50,221.42 Q598.77,222.21 598.77,223.67 L598.77,224.27 L604.43,224.25 Z M616.94,232.24 Q615.30,232.24 614.34,231.33 Q613.58,230.63 613.43,229.48 L613.38,229.48 L613.38,232.00 L610.82,232.00 L610.82,214.48 L613.41,214.48 L613.41,218.25 L613.34,221.32 L613.43,221.32 Q613.58,220.17 614.37,219.45 Q615.33,218.56 616.94,218.56 Q618.93,218.56 620.13,219.91 Q621.33,221.25 621.33,223.55 L621.33,227.27 Q621.33,229.55 620.13,230.90 Q618.93,232.24 616.94,232.24 Z M616.05,229.98 Q617.32,229.98 618.04,229.25 Q618.76,228.52 618.76,227.13 L618.76,223.67 Q618.76,222.28 618.04,221.55 Q617.32,220.82 616.05,220.82 Q614.82,220.82 614.11,221.57 Q613.41,222.33 613.41,223.67 L613.41,227.13 Q613.41,228.47 614.11,229.23 Q614.82,229.98 616.05,229.98 Z M624.23,232.00 L628.70,214.48 L632.10,214.48 L636.57,232.00 L633.95,232.00 L632.90,227.56 L627.93,227.56 L626.87,232.00 L624.23,232.00 Z M628.41,225.42 L632.39,225.42 L631.19,220.36 Q630.88,219.02 630.67,218.02 Q630.47,217.02 630.40,216.66 Q630.33,217.02 630.13,218.02 Q629.94,219.02 629.61,220.34 L628.41,225.42 Z M644.34,232.22 Q642.93,232.22 641.86,231.76 Q640.79,231.30 640.18,230.50 Q639.57,229.70 639.47,228.59 L642.06,228.59 Q642.16,229.24 642.76,229.64 Q643.36,230.03 644.34,230.03 L645.38,230.03 Q646.55,230.03 647.15,229.55 Q647.75,229.07 647.75,228.28 Q647.75,227.51 647.21,227.07 Q646.67,226.62 645.62,226.48 L643.91,226.22 Q641.80,225.88 640.80,225.01 Q639.81,224.13 639.81,222.40 Q639.81,220.58 640.99,219.58 Q642.18,218.58 644.51,218.58 L645.42,218.58 Q647.49,218.58 648.72,219.53 Q649.96,220.48 650.13,222.06 L647.54,222.06 Q647.44,221.49 646.90,221.13 Q646.36,220.77 645.42,220.77 L644.51,220.77 Q643.38,220.77 642.86,221.19 Q642.35,221.61 642.35,222.42 Q642.35,223.14 642.80,223.50 Q643.26,223.86 644.22,224.01 L645.98,224.30 Q648.21,224.61 649.25,225.53 Q650.30,226.46 650.30,228.21 Q650.30,230.10 649.06,231.16 Q647.82,232.22 645.38,232.22 L644.34,232.22 Z M658.74,232.22 Q657.33,232.22 656.26,231.76 Q655.19,231.30 654.58,230.50 Q653.97,229.70 653.87,228.59 L656.46,228.59 Q656.56,229.24 657.16,229.64 Q657.76,230.03 658.74,230.03 L659.78,230.03 Q660.95,230.03 661.55,229.55 Q662.15,229.07 662.15,228.28 Q662.15,227.51 661.61,227.07 Q661.07,226.62 660.02,226.48 L658.31,226.22 Q656.20,225.88 655.20,225.01 Q654.21,224.13 654.21,222.40 Q654.21,220.58 655.39,219.58 Q656.58,218.58 658.91,218.58 L659.82,218.58 Q661.89,218.58 663.12,219.53 Q664.36,220.48 664.53,222.06 L661.94,222.06 Q661.84,221.49 661.30,221.13 Q660.76,220.77 659.82,220.77 L658.91,220.77 Q657.78,220.77 657.26,221.19 Q656.75,221.61 656.75,222.42 Q656.75,223.14 657.20,223.50 Q657.66,223.86 658.62,224.01 L660.38,224.30 Q662.61,224.61 663.65,225.53 Q664.70,226.46 664.70,228.21 Q664.70,230.10 663.46,231.16 Q662.22,232.22 659.78,232.22 L658.74,232.22 Z M673.60,232.24 Q671.99,232.24 670.78,231.61 Q669.57,230.97 668.92,229.82 Q668.27,228.66 668.27,227.13 L668.27,223.67 Q668.27,222.11 668.92,220.97 Q669.57,219.83 670.78,219.20 Q671.99,218.56 673.60,218.56 Q675.23,218.56 676.43,219.20 Q677.63,219.83 678.28,220.97 Q678.93,222.11 678.93,223.67 L678.93,226.02 L670.77,226.02 L670.77,227.13 Q670.77,228.59 671.50,229.36 Q672.23,230.13 673.62,230.13 Q674.75,230.13 675.44,229.74 Q676.14,229.34 676.31,228.57 L678.88,228.57 Q678.59,230.25 677.15,231.25 Q675.71,232.24 673.60,232.24 Z M676.43,224.25 L676.43,223.65 Q676.43,222.21 675.71,221.42 Q674.99,220.62 673.60,220.62 Q672.23,220.62 671.50,221.42 Q670.77,222.21 670.77,223.67 L670.77,224.27 L676.43,224.25 Z M682.22,232.00 L682.22,218.80 L684.38,218.80 L684.38,220.48 L684.52,220.48 Q684.64,219.71 685.10,219.21 Q685.70,218.56 686.70,218.56 Q687.78,218.56 688.38,219.40 Q688.70,219.86 688.84,220.48 L688.94,220.48 Q689.06,219.71 689.54,219.21 Q690.14,218.56 691.17,218.56 Q692.39,218.56 693.08,219.49 Q693.78,220.41 693.78,221.94 L693.78,232.00 L691.48,232.00 L691.48,222.02 Q691.48,221.27 691.15,220.87 Q690.83,220.46 690.23,220.46 Q689.63,220.46 689.30,220.85 Q688.98,221.25 688.98,221.99 L688.98,232.00 L687.04,232.00 L687.04,222.02 Q687.04,221.25 686.70,220.85 Q686.37,220.46 685.74,220.46 Q685.14,220.46 684.84,220.85 Q684.54,221.25 684.54,221.99 L684.54,232.00 L682.22,232.00 Z M703.34,232.24 Q701.70,232.24 700.74,231.33 Q699.98,230.63 699.83,229.48 L699.78,229.48 L699.78,232.00 L697.22,232.00 L697.22,214.48 L699.81,214.48 L699.81,218.25 L699.74,221.32 L699.83,221.32 Q699.98,220.17 700.77,219.45 Q701.73,218.56 703.34,218.56 Q705.33,218.56 706.53,219.91 Q707.73,221.25 707.73,223.55 L707.73,227.27 Q707.73,229.55 706.53,230.90 Q705.33,232.24 703.34,232.24 Z M702.45,229.98 Q703.72,229.98 704.44,229.25 Q705.16,228.52 705.16,227.13 L705.16,223.67 Q705.16,222.28 704.44,221.55 Q703.72,220.82 702.45,220.82 Q701.22,220.82 700.51,221.57 Q699.81,222.33 699.81,223.67 L699.81,227.13 Q699.81,228.47 700.51,229.23 Q701.22,229.98 702.45,229.98 Z M718.70,232.00 Q717.47,232.00 716.56,231.51 Q715.65,231.02 715.13,230.11 Q714.62,229.19 714.62,227.99 L714.62,216.83 L710.30,216.83 L710.30,214.48 L717.21,214.48 L717.21,227.99 Q717.21,228.76 717.64,229.21 Q718.07,229.65 718.82,229.65 L722.90,229.65 L722.90,232.00 L718.70,232.00 Z M728.13,236.32 L730.02,231.23 L725.10,218.80 L727.96,218.80 L730.72,226.24 Q730.89,226.72 731.05,227.39 Q731.22,228.06 731.34,228.50 Q731.44,228.06 731.61,227.39 Q731.78,226.72 731.94,226.24 L734.54,218.80 L737.30,218.80 L730.86,236.32 L728.13,236.32 Z M760.00,225.76 Q759.04,225.76 758.46,225.20 Q757.89,224.63 757.89,223.67 Q757.89,222.69 758.46,222.10 Q759.04,221.51 760.00,221.51 Q760.98,221.51 761.54,222.10 Q762.11,222.69 762.11,223.67 Q762.11,224.63 761.54,225.20 Q760.98,225.76 760.00,225.76 Z M784.05,232.00 L784.05,218.80 L786.54,218.80 L786.54,221.25 Q786.78,220.29 787.31,219.64 Q788.25,218.56 790.10,218.56 Q792.21,218.56 793.44,219.87 Q794.68,221.18 794.68,223.46 L794.68,224.34 L792.02,224.34 L792.02,223.67 Q792.02,222.26 791.31,221.50 Q790.60,220.74 789.33,220.74 Q788.06,220.74 787.35,221.51 Q786.64,222.28 786.64,223.67 L786.64,232.00 L784.05,232.00 Z M803.20,232.24 Q801.59,232.24 800.38,231.61 Q799.17,230.97 798.52,229.82 Q797.87,228.66 797.87,227.13 L797.87,223.67 Q797.87,222.11 798.52,220.97 Q799.17,219.83 800.38,219.20 Q801.59,218.56 803.20,218.56 Q804.83,218.56 806.03,219.20 Q807.23,219.83 807.88,220.97 Q808.53,222.11 808.53,223.67 L808.53,226.02 L800.37,226.02 L800.37,227.13 Q800.37,228.59 801.10,229.36 Q801.83,230.13 803.22,230.13 Q804.35,230.13 805.04,229.74 Q805.74,229.34 805.91,228.57 L808.48,228.57 Q808.19,230.25 806.75,231.25 Q805.31,232.24 803.20,232.24 Z M806.03,224.25 L806.03,223.65 Q806.03,222.21 805.31,221.42 Q804.59,220.62 803.20,220.62 Q801.83,220.62 801.10,221.42 Q800.37,222.21 800.37,223.67 L800.37,224.27 L806.03,224.25 Z M816.28,232.24 Q814.22,232.24 813.03,231.17 Q811.84,230.10 811.84,228.26 Q811.84,226.38 813.10,225.32 Q814.36,224.25 816.57,224.25 L820.24,224.25 L820.24,223.02 Q820.24,221.94 819.57,221.34 Q818.90,220.74 817.67,220.74 Q816.59,220.74 815.87,221.21 Q815.15,221.68 815.03,222.45 L812.49,222.45 Q812.70,220.67 814.13,219.62 Q815.56,218.56 817.74,218.56 Q820.10,218.56 821.46,219.75 Q822.83,220.94 822.83,222.98 L822.83,232.00 L820.31,232.00 L820.31,229.58 L820.29,229.58 Q820.12,230.68 819.21,231.38 Q818.10,232.24 816.28,232.24 Z M817.05,230.25 Q818.44,230.25 819.34,229.54 Q820.24,228.83 820.24,227.73 L820.24,226.00 L816.62,226.00 Q815.61,226.00 815.02,226.55 Q814.43,227.10 814.43,228.06 Q814.43,229.07 815.12,229.66 Q815.82,230.25 817.05,230.25 Z M833.90,232.00 Q832.67,232.00 831.76,231.51 Q830.85,231.02 830.33,230.11 Q829.82,229.19 829.82,227.99 L829.82,216.83 L825.50,216.83 L825.50,214.48 L832.41,214.48 L832.41,227.99 Q832.41,228.76 832.84,229.21 Q833.27,229.65 834.02,229.65 L838.10,229.65 L838.10,232.00 L833.90,232.00 Z M842.56,225.26 L842.56,222.90 L850.24,222.90 L850.24,225.26 L842.56,225.26 Z M862.24,232.00 Q860.44,232.00 859.43,231.02 Q858.42,230.03 858.42,228.28 L858.42,221.15 L854.78,221.15 L854.78,218.80 L858.42,218.80 L858.42,215.08 L861.02,215.08 L861.02,218.80 L866.18,218.80 L866.18,221.15 L861.02,221.15 L861.02,228.28 Q861.02,229.65 862.34,229.65 L865.94,229.65 L865.94,232.00 L862.24,232.00 Z M869.94,232.00 L869.94,229.65 L874.58,229.65 L874.58,221.15 L870.54,221.15 L870.54,218.80 L877.10,218.80 L877.10,229.65 L881.34,229.65 L881.34,232.00 L869.94,232.00 Z M875.59,216.52 Q874.75,216.52 874.24,216.08 Q873.74,215.63 873.74,214.89 Q873.74,214.12 874.24,213.68 Q874.75,213.23 875.59,213.23 Q876.43,213.23 876.93,213.68 Q877.44,214.12 877.44,214.89 Q877.44,215.63 876.93,216.08 Q876.43,216.52 875.59,216.52 Z M883.82,232.00 L883.82,218.80 L885.98,218.80 L885.98,220.48 L886.12,220.48 Q886.24,219.71 886.70,219.21 Q887.30,218.56 888.30,218.56 Q889.38,218.56 889.98,219.40 Q890.30,219.86 890.44,220.48 L890.54,220.48 Q890.66,219.71 891.14,219.21 Q891.74,218.56 892.77,218.56 Q893.99,218.56 894.68,219.49 Q895.38,220.41 895.38,221.94 L895.38,232.00 L893.08,232.00 L893.08,222.02 Q893.08,221.27 892.75,220.87 Q892.43,220.46 891.83,220.46 Q891.23,220.46 890.90,220.85 Q890.58,221.25 890.58,221.99 L890.58,232.00 L888.64,232.00 L888.64,222.02 Q888.64,221.25 888.30,220.85 Q887.97,220.46 887.34,220.46 Q886.74,220.46 886.44,220.85 Q886.14,221.25 886.14,221.99 L886.14,232.00 L883.82,232.00 Z M904.00,232.24 Q902.39,232.24 901.18,231.61 Q899.97,230.97 899.32,229.82 Q898.67,228.66 898.67,227.13 L898.67,223.67 Q898.67,222.11 899.32,220.97 Q899.97,219.83 901.18,219.20 Q902.39,218.56 904.00,218.56 Q905.63,218.56 906.83,219.20 Q908.03,219.83 908.68,220.97 Q909.33,222.11 909.33,223.67 L909.33,226.02 L901.17,226.02 L901.17,227.13 Q901.17,228.59 901.90,229.36 Q902.63,230.13 904.02,230.13 Q905.15,230.13 905.84,229.74 Q906.54,229.34 906.71,228.57 L909.28,228.57 Q908.99,230.25 907.55,231.25 Q906.11,232.24 904.00,232.24 Z M906.83,224.25 L906.83,223.65 Q906.83,222.21 906.11,221.42 Q905.39,220.62 904.00,220.62 Q902.63,220.62 901.90,221.42 Q901.17,222.21 901.17,223.67 L901.17,224.27 L906.83,224.25 Z M932.34,232.22 Q930.93,232.22 929.86,231.76 Q928.79,231.30 928.18,230.50 Q927.57,229.70 927.47,228.59 L930.06,228.59 Q930.16,229.24 930.76,229.64 Q931.36,230.03 932.34,230.03 L933.38,230.03 Q934.55,230.03 935.15,229.55 Q935.75,229.07 935.75,228.28 Q935.75,227.51 935.21,227.07 Q934.67,226.62 933.62,226.48 L931.91,226.22 Q929.80,225.88 928.80,225.01 Q927.81,224.13 927.81,222.40 Q927.81,220.58 928.99,219.58 Q930.18,218.58 932.51,218.58 L933.42,218.58 Q935.49,218.58 936.72,219.53 Q937.96,220.48 938.13,222.06 L935.54,222.06 Q935.44,221.49 934.90,221.13 Q934.36,220.77 933.42,220.77 L932.51,220.77 Q931.38,220.77 930.86,221.19 Q930.35,221.61 930.35,222.42 Q930.35,223.14 930.80,223.50 Q931.26,223.86 932.22,224.01 L933.98,224.30 Q936.21,224.61 937.25,225.53 Q938.30,226.46 938.30,228.21 Q938.30,230.10 937.06,231.16 Q935.82,232.22 933.38,232.22 L932.34,232.22 Z M944.13,236.32 L946.02,231.23 L941.10,218.80 L943.96,218.80 L946.72,226.24 Q946.89,226.72 947.05,227.39 Q947.22,228.06 947.34,228.50 Q947.44,228.06 947.61,227.39 Q947.78,226.72 947.94,226.24 L950.54,218.80 L953.30,218.80 L946.86,236.32 L944.13,236.32 Z M961.14,232.22 Q959.73,232.22 958.66,231.76 Q957.59,231.30 956.98,230.50 Q956.37,229.70 956.27,228.59 L958.86,228.59 Q958.96,229.24 959.56,229.64 Q960.16,230.03 961.14,230.03 L962.18,230.03 Q963.35,230.03 963.95,229.55 Q964.55,229.07 964.55,228.28 Q964.55,227.51 964.01,227.07 Q963.47,226.62 962.42,226.48 L960.71,226.22 Q958.60,225.88 957.60,225.01 Q956.61,224.13 956.61,222.40 Q956.61,220.58 957.79,219.58 Q958.98,218.58 961.31,218.58 L962.22,218.58 Q964.29,218.58 965.52,219.53 Q966.76,220.48 966.93,222.06 L964.34,222.06 Q964.24,221.49 963.70,221.13 Q963.16,220.77 962.22,220.77 L961.31,220.77 Q960.18,220.77 959.66,221.19 Q959.15,221.61 959.15,222.42 Q959.15,223.14 959.60,223.50 Q960.06,223.86 961.02,224.01 L962.78,224.30 Q965.01,224.61 966.05,225.53 Q967.10,226.46 967.10,228.21 Q967.10,230.10 965.86,231.16 Q964.62,232.22 962.18,232.22 L961.14,232.22 Z M977.44,232.00 Q975.64,232.00 974.63,231.02 Q973.62,230.03 973.62,228.28 L973.62,221.15 L969.98,221.15 L969.98,218.80 L973.62,218.80 L973.62,215.08 L976.22,215.08 L976.22,218.80 L981.38,218.80 L981.38,221.15 L976.22,221.15 L976.22,228.28 Q976.22,229.65 977.54,229.65 L981.14,229.65 L981.14,232.00 L977.44,232.00 Z M990.40,232.24 Q988.79,232.24 987.58,231.61 Q986.37,230.97 985.72,229.82 Q985.07,228.66 985.07,227.13 L985.07,223.67 Q985.07,222.11 985.72,220.97 Q986.37,219.83 987.58,219.20 Q988.79,218.56 990.40,218.56 Q992.03,218.56 993.23,219.20 Q994.43,219.83 995.08,220.97 Q995.73,222.11 995.73,223.67 L995.73,226.02 L987.57,226.02 L987.57,227.13 Q987.57,228.59 988.30,229.36 Q989.03,230.13 990.42,230.13 Q991.55,230.13 992.24,229.74 Q992.94,229.34 993.11,228.57 L995.68,228.57 Q995.39,230.25 993.95,231.25 Q992.51,232.24 990.40,232.24 Z M993.23,224.25 L993.23,223.65 Q993.23,222.21 992.51,221.42 Q991.79,220.62 990.40,220.62 Q989.03,220.62 988.30,221.42 Q987.57,222.21 987.57,223.67 L987.57,224.27 L993.23,224.25 Z M999.02,232.00 L999.02,218.80 L1001.18,218.80 L1001.18,220.48 L1001.32,220.48 Q1001.44,219.71 1001.90,219.21 Q1002.50,218.56 1003.50,218.56 Q1004.58,218.56 1005.18,219.40 Q1005.50,219.86 1005.64,220.48 L1005.74,220.48 Q1005.86,219.71 1006.34,219.21 Q1006.94,218.56 1007.97,218.56 Q1009.19,218.56 1009.88,219.49 Q1010.58,220.41 1010.58,221.94 L1010.58,232.00 L1008.28,232.00 L1008.28,222.02 Q1008.28,221.27 1007.95,220.87 Q1007.63,220.46 1007.03,220.46 Q1006.43,220.46 1006.10,220.85 Q1005.78,221.25 1005.78,221.99 L1005.78,232.00 L1003.84,232.00 L1003.84,222.02 Q1003.84,221.25 1003.50,220.85 Q1003.17,220.46 1002.54,220.46 Q1001.94,220.46 1001.64,220.85 Q1001.34,221.25 1001.34,221.99 L1001.34,232.00 L999.02,232.00 Z M1018.74,232.22 Q1017.33,232.22 1016.26,231.76 Q1015.19,231.30 1014.58,230.50 Q1013.97,229.70 1013.87,228.59 L1016.46,228.59 Q1016.56,229.24 1017.16,229.64 Q1017.76,230.03 1018.74,230.03 L1019.78,230.03 Q1020.95,230.03 1021.55,229.55 Q1022.15,229.07 1022.15,228.28 Q1022.15,227.51 1021.61,227.07 Q1021.07,226.62 1020.02,226.48 L1018.31,226.22 Q1016.20,225.88 1015.20,225.01 Q1014.21,224.13 1014.21,222.40 Q1014.21,220.58 1015.39,219.58 Q1016.58,218.58 1018.91,218.58 L1019.82,218.58 Q1021.89,218.58 1023.12,219.53 Q1024.36,220.48 1024.53,222.06 L1021.94,222.06 Q1021.84,221.49 1021.30,221.13 Q1020.76,220.77 1019.82,220.77 L1018.91,220.77 Q1017.78,220.77 1017.26,221.19 Q1016.75,221.61 1016.75,222.42 Q1016.75,223.14 1017.20,223.50 Q1017.66,223.86 1018.62,224.01 L1020.38,224.30 Q1022.61,224.61 1023.65,225.53 Q1024.70,226.46 1024.70,228.21 Q1024.70,230.10 1023.46,231.16 Q1022.22,232.22 1019.78,232.22 L1018.74,232.22 Z" fill="#94A8BC"/>
  </g>
</svg>